<svg xmlns="http://www.w3.org/2000/svg" xmlns:xlink="http://www.w3.org/1999/xlink" width="500" zoomAndPan="magnify" viewBox="0 0 375 374.999991" height="500" preserveAspectRatio="xMidYMid meet" version="1.0"><defs><g/><clipPath id="e6303840fd"><path d="M 89.34375 41.679688 L 257.652344 41.679688 L 257.652344 175.492188 L 89.34375 175.492188 Z M 89.34375 41.679688 " clip-rule="nonzero"/></clipPath><clipPath id="1f5e9dae2b"><path d="M 173.316406 41.679688 C 126.9375 41.679688 89.34375 71.632812 89.34375 108.585938 C 89.34375 145.535156 126.9375 175.492188 173.316406 175.492188 C 219.691406 175.492188 257.289062 145.535156 257.289062 108.585938 C 257.289062 71.632812 219.691406 41.679688 173.316406 41.679688 Z M 173.316406 41.679688 " clip-rule="nonzero"/></clipPath></defs><g clip-path="url(#e6303840fd)"><g clip-path="url(#1f5e9dae2b)"><path fill="#000000" d="M 89.34375 41.679688 L 257.128906 41.679688 L 257.128906 175.492188 L 89.34375 175.492188 Z M 89.34375 41.679688 " fill-opacity="1" fill-rule="nonzero"/></g></g><g fill="#000000" fill-opacity="1"><g transform="translate(53.039306, 350.355277)"><g><path d="M 24.21875 -333.09375 L 145.75 -333.09375 C 179.664062 -333.09375 207.117188 -324.34375 228.109375 -306.84375 C 249.109375 -289.351562 259.609375 -263.914062 259.609375 -230.53125 C 259.609375 -197.15625 248.972656 -170.976562 227.703125 -152 C 206.441406 -133.03125 179.125 -123.546875 145.75 -123.546875 L 100.125 -123.546875 L 100.125 0 L 24.21875 0 Z M 100.125 -184.109375 L 121.53125 -184.109375 C 138.488281 -184.109375 152.414062 -187.539062 163.3125 -194.40625 C 174.21875 -201.269531 179.671875 -212.507812 179.671875 -228.125 C 179.671875 -244 174.21875 -255.367188 163.3125 -262.234375 C 152.414062 -269.097656 138.488281 -272.53125 121.53125 -272.53125 L 100.125 -272.53125 Z M 100.125 -184.109375 "/></g></g></g></svg>